<svg width="256" height="256" viewBox="0 0 100 100" xmlns="http://www.w3.org/2000/svg">
  <!-- 
    App Icon for "Speak the Bible"
    A faithful recreation of the provided reference image, with sound waves integrated.
  -->
  <defs>
    <linearGradient id="finalGradient" x1="0%" y1="0%" x2="100%" y2="100%">
      <stop offset="0%" style="stop-color:#3a47d5;" />
      <stop offset="100%" style="stop-color:#2a2a72;" />
    </linearGradient>
    
    <!-- Define the Bible shape as a clip-path to cut out the sound waves -->
    <clipPath id="cross-clip">
      <path d="M 50 28 V 45 H 35 V 58 H 50 V 75 H 63 V 58 H 78 V 45 H 63 V 28 Z" />
    </clipPath>
  </defs>

  <!-- Background Squircle -->
  <rect width="100" height="100" rx="22" ry="22" fill="url(#finalGradient)" />

  <!-- The Bible Icon, centered and scaled -->
  <g transform="scale(0.85) translate(9, 9)">
    <!-- Bible Body (Black shape) -->
    <path fill="black" d="M 20 15 C 11.7 15 5 21.7 5 30 V 80 H 85 V 15 H 20 Z" />
    
    <!-- Spine and Cross (White elements cutting out the black) -->
    <g fill="white">
      <!-- Spine -->
      <rect x="5" y="80" width="80" height="10" rx="5" ry="5" />
      <!-- Cross -->
      <path d="M 50 28 V 45 H 35 V 58 H 50 V 75 H 63 V 58 H 78 V 45 H 63 V 28 Z" />
    </g>

    <!-- Sound Waves, clipped by the shape of the cross -->
    <g clip-path="url(#cross-clip)">
      <g fill="none" stroke="url(#finalGradient)" stroke-width="5" stroke-linecap="round">
        <circle cx="56.5" cy="51.5" r="5" />
        <circle cx="56.5" cy="51.5" r="15" />
        <circle cx="56.5" cy="51.5" r="25" />
        <circle cx="56.5" cy="51.5" r="35" />
      </g>
    </g>
  </g>
</svg>